<svg xmlns="http://www.w3.org/2000/svg" viewBox="0 0 48 48" width="48" height="48">
  <defs>
    <linearGradient id="hb4-grad" x1="0%" y1="0%" x2="100%" y2="100%">
      <stop offset="0%" stop-color="#2563EB" />
      <stop offset="50%" stop-color="#4F46E5" />
      <stop offset="100%" stop-color="#7C3AED" />
    </linearGradient>
    <filter id="hb4-shadow" x="-10%" y="-10%" width="120%" height="120%">
      <feDropShadow dx="0" dy="2" stdDeviation="2" flood-color="#000000" flood-opacity="0.25"/>
    </filter>
  </defs>
  
  <!-- Rounded squircle background -->
  <rect x="2" y="2" width="44" height="44" rx="11" fill="url(#hb4-grad)" filter="url(#hb4-shadow)" />
  
  <!-- Ticket shape with notch -->
  <path d="M10 14a3 3 0 0 1 3-3h22a3 3 0 0 1 3 3v4a3 3 0 0 0 0 6v4a3 3 0 0 1-3 3H13a3 3 0 0 1-3-3v-4a3 3 0 0 0 0-6v-4z" 
        fill="#FFFFFF" fill-opacity="0.15" stroke="#FFFFFF" stroke-width="2.2" stroke-linecap="round" stroke-linejoin="round"/>
  
  <!-- Code prompt `>` (Hack) and cursor `_` -->
  <path d="M18 19l4.5 4.5L18 28" fill="none" stroke="#FFFFFF" stroke-width="2.5" stroke-linecap="round" stroke-linejoin="round"/>
  <path d="M25 28h5" stroke="#93C5FD" stroke-width="2.5" stroke-linecap="round"/>
</svg>
